<svg width="50" height="50" viewBox="0 0 50 50" fill="none" xmlns="http://www.w3.org/2000/svg">
<g id="Logo">
<path id="Ellipse 2" d="M39.8492 39.8492C41.4113 41.4113 41.4265 43.975 39.6355 45.2683C36.9521 47.2059 33.8994 48.5994 30.6494 49.3533C26.0946 50.4099 21.3347 50.168 16.9105 48.655C12.4863 47.142 8.57505 44.4186 5.62105 40.7942C2.66706 37.1697 0.788711 32.7895 0.199374 28.151C-0.389963 23.5125 0.333331 18.8018 2.2871 14.5538C4.24087 10.3057 7.34679 6.69079 11.2521 4.11951C15.1574 1.54823 19.7055 0.123688 24.3798 0.00769387C27.7151 -0.0750721 31.0193 0.510754 34.1019 1.71577C36.1595 2.52006 36.7859 5.00609 35.6641 6.90919C34.5422 8.81229 32.0929 9.39324 29.9807 8.74601C28.2397 8.21251 26.4159 7.95963 24.5783 8.00523C21.3997 8.08411 18.307 9.0528 15.6514 10.8013C12.9958 12.5497 10.8838 15.0079 9.55523 17.8966C8.22666 20.7852 7.73482 23.9885 8.13557 27.1427C8.53632 30.2969 9.8136 33.2754 11.8223 35.74C13.831 38.2047 16.4907 40.0566 19.4991 41.0854C22.5076 42.1142 25.7443 42.2788 28.8416 41.5603C30.6323 41.1449 32.3349 40.4439 33.8871 39.492C35.7704 38.3372 38.2871 38.2871 39.8492 39.8492Z" fill="#CFD7D1"/>
<mask id="mask0_197_186" style="mask-type:alpha" maskUnits="userSpaceOnUse" x="0" y="0" width="42" height="50">
<path id="Ellipse 6" d="M39.8492 39.8492C41.4113 41.4113 41.4265 43.975 39.6355 45.2683C36.8003 47.3155 33.5544 48.7542 30.1019 49.4739C25.3379 50.467 20.3876 50.0481 15.8582 48.2686C11.3287 46.489 7.41717 43.4262 4.60322 39.4558C1.78927 35.4854 0.195304 30.7801 0.0168201 25.9169C-0.161664 21.0537 1.0831 16.2442 3.59843 12.0782C6.11376 7.91221 9.7903 4.57092 14.1771 2.46415C18.5639 0.357384 23.4702 -0.423256 28.2942 0.217983C31.7901 0.682685 35.1327 1.87949 38.1103 3.71339C39.9914 4.87189 40.1642 7.42981 38.7208 9.10221C37.2774 10.7746 34.7637 10.9092 32.8009 9.89551C31.0704 9.00179 29.1903 8.40747 27.24 8.14823C23.9597 7.71219 20.6234 8.24302 17.6404 9.67562C14.6574 11.1082 12.1574 13.3803 10.4469 16.2132C8.73651 19.046 7.89007 22.3165 8.01144 25.6235C8.13281 28.9305 9.21671 32.1301 11.1302 34.83C13.0437 37.5298 15.7035 39.6125 18.7835 40.8226C21.8635 42.0327 25.2298 42.3176 28.4693 41.6422C30.3954 41.2407 32.2268 40.5102 33.8871 39.492C35.7704 38.3372 38.2871 38.2871 39.8492 39.8492Z" fill="#E3E6E4"/>
</mask>
<g mask="url(#mask0_197_186)">
<path id="Ellipse 5" d="M38.1946 37.2282C38.6598 37.6593 38.6897 38.3886 38.2315 38.8271C36.2265 40.7457 33.8246 42.2087 31.1899 43.1093C28.1925 44.1338 24.9876 44.3983 21.8627 43.879C18.7378 43.3597 15.7907 42.0729 13.2858 40.134C11.084 38.4297 9.28432 36.2685 8.00761 33.8045C7.71585 33.2414 7.98005 32.561 8.55961 32.3035C9.13917 32.0461 9.81424 32.3094 10.1106 32.8701C11.2299 34.9877 12.7904 36.8464 14.6915 38.3179C16.8959 40.0242 19.4893 41.1566 22.2392 41.6135C24.9891 42.0705 27.8094 41.8378 30.4471 40.9361C32.722 40.1586 34.7997 38.9045 36.5438 37.2627C37.0055 36.828 37.7295 36.7971 38.1946 37.2282Z" fill="#EEF1EF"/>
<path id="Ellipse 1" d="M9.55142 39.2247C7.92627 40.7211 5.36403 40.6305 4.14567 38.7877C1.4257 34.6737 -0.033835 29.8188 0.00059477 24.8276C0.044283 18.4942 2.4902 12.4134 6.8442 7.81376C11.1982 3.21413 17.1357 0.438511 23.4572 0.0476509C28.439 -0.260377 33.3666 0.930789 37.6236 3.42111C39.5304 4.5366 39.7613 7.09002 38.3563 8.79477C36.9512 10.4995 34.4413 10.6911 32.4559 9.72223C29.8346 8.44304 26.9068 7.84964 23.9509 8.0324C19.6523 8.29819 15.6148 10.1856 12.6541 13.3134C9.69333 16.4411 8.03011 20.576 8.0004 24.8827C7.97998 27.8442 8.733 30.7351 10.154 33.2824C11.2302 35.2116 11.1766 37.7283 9.55142 39.2247Z" fill="#61EF94"/>
</g>
<mask id="mask1_197_186" style="mask-type:alpha" maskUnits="userSpaceOnUse" x="0" y="0" width="40" height="41">
<path id="Ellipse 4" d="M9.55142 39.2247C7.92627 40.7211 5.36403 40.6305 4.14567 38.7877C1.4257 34.6737 -0.033835 29.8188 0.00059477 24.8276C0.044283 18.4942 2.4902 12.4134 6.8442 7.81376C11.1982 3.21413 17.1357 0.438511 23.4572 0.0476509C28.439 -0.260377 33.3666 0.930789 37.6236 3.42111C39.5304 4.5366 39.7613 7.09002 38.3563 8.79477C36.9512 10.4995 34.4413 10.6911 32.4559 9.72223C29.8346 8.44304 26.9068 7.84964 23.9509 8.0324C19.6523 8.29819 15.6148 10.1856 12.6541 13.3134C9.69333 16.4411 8.03011 20.576 8.0004 24.8827C7.97998 27.8442 8.733 30.7351 10.154 33.2824C11.2302 35.2116 11.1766 37.7283 9.55142 39.2247Z" fill="#61EF94"/>
</mask>
<g mask="url(#mask1_197_186)">
<path id="Ellipse 3" d="M13.0206 38.4209C12.5983 38.894 11.8696 38.9375 11.4226 38.4876C8.21939 35.2633 6.25879 30.9927 5.91598 26.4356C5.54438 21.4958 7.10273 16.6042 10.2633 12.7897C13.424 8.97513 17.9406 6.53475 22.8634 5.9817C27.4048 5.47152 31.9654 6.60416 35.7289 9.15225C36.2541 9.5078 36.3468 10.2319 35.9604 10.7348C35.574 11.2377 34.8551 11.3285 34.3271 10.9772C31.0374 8.78896 27.0703 7.82009 23.1198 8.2639C18.7877 8.75058 14.8131 10.8981 12.0317 14.2549C9.2504 17.6117 7.87905 21.9163 8.20606 26.2633C8.50427 30.2275 10.1936 33.9454 12.9552 36.771C13.3985 37.2245 13.4429 37.9478 13.0206 38.4209Z" fill="#CCFCD9"/>
</g>
</g>
</svg>
