<svg width="50" height="50" viewBox="0 0 50 50" fill="none" xmlns="http://www.w3.org/2000/svg">
<path d="M50.0019 25C50.0019 38.8071 38.8091 50 25.002 50C11.1948 50 0.00195312 38.8071 0.00195312 25C0.00195312 11.1929 11.1948 0 25.002 0C38.8091 0 50.0019 11.1929 50.0019 25ZM9.50195 25C9.50195 33.5604 16.4415 40.5 25.002 40.5C33.5624 40.5 40.5019 33.5604 40.5019 25C40.5019 16.4396 33.5624 9.5 25.002 9.5C16.4415 9.5 9.50195 16.4396 9.50195 25Z" fill="#CFD7D1"/>
<path d="M24.9995 -3.8147e-06C30.7834 -3.8147e-06 36.3883 2.00548 40.8593 5.67474C45.3303 9.34399 48.3908 14.45 49.5191 20.1227C50.6475 25.7955 49.7741 31.684 47.0475 36.7849C44.321 41.8858 39.9102 45.8836 34.5666 48.097C29.223 50.3104 23.2772 50.6025 17.7424 48.9235C12.2076 47.2445 7.42613 43.6984 4.21277 38.8893C0.99942 34.0801 -0.447026 28.3056 0.119893 22.5496C0.686812 16.7935 3.23202 11.4122 7.32184 7.32233L14.0394 14.0398C11.5037 16.5755 9.92564 19.912 9.57415 23.4807C9.22266 27.0495 10.1195 30.6297 12.1117 33.6113C14.104 36.593 17.0685 38.7916 20.5001 39.8326C23.9317 40.8735 27.6181 40.6924 30.9311 39.3201C34.2441 37.9478 36.9789 35.4692 38.6693 32.3066C40.3597 29.1441 40.9013 25.4932 40.2017 21.9761C39.5021 18.459 37.6046 15.2933 34.8326 13.0183C32.0606 10.7434 28.5855 9.5 24.9995 9.5V-3.8147e-06Z" fill="#EFE161"/>
<path d="M24.9995 -3.8147e-06C29.944 -3.8147e-06 34.7775 1.46622 38.8888 4.21326C43 6.96029 46.2043 10.8648 48.0965 15.4329C49.9887 20.0011 50.4838 25.0277 49.5191 29.8773C48.5545 34.7268 46.1735 39.1814 42.6772 42.6777C39.1809 46.174 34.7263 48.555 29.8768 49.5196C25.0272 50.4843 20.0006 49.9892 15.4324 48.097C10.8643 46.2048 6.95981 43.0005 4.21277 38.8893C1.46574 34.778 -0.00048834 29.9445 -0.000488281 25H9.49951C9.49951 28.0656 10.4086 31.0624 12.1117 33.6113C13.8149 36.1603 16.2357 38.147 19.0679 39.3201C21.9002 40.4933 25.0167 40.8002 28.0234 40.2022C31.0301 39.6041 33.792 38.1279 35.9597 35.9602C38.1274 33.7924 39.6036 31.0306 40.2017 28.0239C40.7998 25.0172 40.4928 21.9007 39.3196 19.0684C38.1465 16.2361 36.1598 13.8154 33.6109 12.1122C31.0619 10.4091 28.0651 9.5 24.9995 9.5V-3.8147e-06Z" fill="#61EF94"/>
</svg>
