<svg width="48" height="48" viewBox="0 0 48 48" fill="none" xmlns="http://www.w3.org/2000/svg">
<path d="M42.5833 28C42.0308 28 41.5009 28.2195 41.1102 28.6102C40.7195 29.0009 40.5 29.5308 40.5 30.0833V38.4167C40.5 38.9692 40.2805 39.4991 39.8898 39.8898C39.4991 40.2805 38.9692 40.5 38.4167 40.5H9.25C8.69747 40.5 8.16756 40.2805 7.77686 39.8898C7.38616 39.4991 7.16667 38.9692 7.16667 38.4167V30.0833C7.16667 29.5308 6.94717 29.0009 6.55647 28.6102C6.16577 28.2195 5.63587 28 5.08333 28C4.5308 28 4.00089 28.2195 3.61019 28.6102C3.21949 29.0009 3 29.5308 3 30.0833V38.4167C3 40.0743 3.65848 41.664 4.83058 42.8361C6.00269 44.0082 7.5924 44.6667 9.25 44.6667H38.4167C40.0743 44.6667 41.664 44.0082 42.8361 42.8361C44.0082 41.664 44.6667 40.0743 44.6667 38.4167V30.0833C44.6667 29.5308 44.4472 29.0009 44.0565 28.6102C43.6658 28.2195 43.1359 28 42.5833 28ZM22.3542 31.5625C22.5523 31.7522 22.7859 31.9008 23.0417 32C23.291 32.1102 23.5607 32.1672 23.8333 32.1672C24.106 32.1672 24.3756 32.1102 24.625 32C24.8807 31.9008 25.1144 31.7522 25.3125 31.5625L33.6458 23.2292C34.0381 22.8369 34.2585 22.3048 34.2585 21.75C34.2585 21.1952 34.0381 20.6631 33.6458 20.2708C33.2535 19.8785 32.7215 19.6581 32.1667 19.6581C31.6119 19.6581 31.0798 19.8785 30.6875 20.2708L25.9167 25.0625V5.08333C25.9167 4.5308 25.6972 4.00089 25.3065 3.61019C24.9158 3.21949 24.3859 3 23.8333 3C23.2808 3 22.7509 3.21949 22.3602 3.61019C21.9695 4.00089 21.75 4.5308 21.75 5.08333V25.0625L16.9792 20.2708C16.7849 20.0766 16.5543 19.9225 16.3005 19.8174C16.0467 19.7122 15.7747 19.6581 15.5 19.6581C15.2253 19.6581 14.9533 19.7122 14.6995 19.8174C14.4457 19.9225 14.2151 20.0766 14.0208 20.2708C13.8266 20.4651 13.6725 20.6957 13.5674 20.9495C13.4623 21.2033 13.4081 21.4753 13.4081 21.75C13.4081 22.0247 13.4623 22.2967 13.5674 22.5505C13.6725 22.8043 13.8266 23.0349 14.0208 23.2292L22.3542 31.5625Z" fill="#CFD7D1"/>
</svg>
