<svg width="52" height="53" viewBox="0 0 52 53" fill="none" xmlns="http://www.w3.org/2000/svg">
<g filter="url(#filter0_d_1900_308)">
<rect x="2" y="1.66669" width="47.6667" height="47.6667" rx="3" fill="white" shape-rendering="crispEdges"/>
<path d="M44.5833 29.6667C44.0308 29.6667 43.5009 29.8862 43.1102 30.2769C42.7195 30.6676 42.5 31.1975 42.5 31.75V40.0834C42.5 40.6359 42.2805 41.1658 41.8898 41.5565C41.4991 41.9472 40.9692 42.1667 40.4167 42.1667H11.25C10.6975 42.1667 10.1676 41.9472 9.77686 41.5565C9.38616 41.1658 9.16667 40.6359 9.16667 40.0834V31.75C9.16667 31.1975 8.94717 30.6676 8.55647 30.2769C8.16577 29.8862 7.63587 29.6667 7.08333 29.6667C6.5308 29.6667 6.00089 29.8862 5.61019 30.2769C5.21949 30.6676 5 31.1975 5 31.75V40.0834C5 41.741 5.65848 43.3307 6.83058 44.5028C8.00269 45.6749 9.5924 46.3334 11.25 46.3334H40.4167C42.0743 46.3334 43.664 45.6749 44.8361 44.5028C46.0082 43.3307 46.6667 41.741 46.6667 40.0834V31.75C46.6667 31.1975 46.4472 30.6676 46.0565 30.2769C45.6658 29.8862 45.1359 29.6667 44.5833 29.6667ZM24.3542 33.2292C24.5523 33.4189 24.7859 33.5675 25.0417 33.6667C25.291 33.7769 25.5607 33.8338 25.8333 33.8338C26.106 33.8338 26.3756 33.7769 26.625 33.6667C26.8807 33.5675 27.1144 33.4189 27.3125 33.2292L35.6458 24.8959C36.0381 24.5036 36.2585 23.9715 36.2585 23.4167C36.2585 22.8619 36.0381 22.3298 35.6458 21.9375C35.2535 21.5452 34.7215 21.3248 34.1667 21.3248C33.6119 21.3248 33.0798 21.5452 32.6875 21.9375L27.9167 26.7292V6.75002C27.9167 6.19749 27.6972 5.66758 27.3065 5.27688C26.9158 4.88618 26.3859 4.66669 25.8333 4.66669C25.2808 4.66669 24.7509 4.88618 24.3602 5.27688C23.9695 5.66758 23.75 6.19749 23.75 6.75002V26.7292L18.9792 21.9375C18.7849 21.7433 18.5543 21.5892 18.3005 21.4841C18.0467 21.3789 17.7747 21.3248 17.5 21.3248C17.2253 21.3248 16.9533 21.3789 16.6995 21.4841C16.4457 21.5892 16.2151 21.7433 16.0208 21.9375C15.8266 22.1318 15.6725 22.3624 15.5674 22.6162C15.4623 22.87 15.4081 23.142 15.4081 23.4167C15.4081 23.6914 15.4623 23.9634 15.5674 24.2172C15.6725 24.471 15.8266 24.7016 16.0208 24.8959L24.3542 33.2292Z" fill="#A9AFAA"/>
</g>
<defs>
<filter id="filter0_d_1900_308" x="0" y="0.666687" width="51.6667" height="51.6667" filterUnits="userSpaceOnUse" color-interpolation-filters="sRGB">
<feFlood flood-opacity="0" result="BackgroundImageFix"/>
<feColorMatrix in="SourceAlpha" type="matrix" values="0 0 0 0 0 0 0 0 0 0 0 0 0 0 0 0 0 0 127 0" result="hardAlpha"/>
<feOffset dy="1"/>
<feGaussianBlur stdDeviation="1"/>
<feComposite in2="hardAlpha" operator="out"/>
<feColorMatrix type="matrix" values="0 0 0 0 0 0 0 0 0 0 0 0 0 0 0 0 0 0 0.25 0"/>
<feBlend mode="normal" in2="BackgroundImageFix" result="effect1_dropShadow_1900_308"/>
<feBlend mode="normal" in="SourceGraphic" in2="effect1_dropShadow_1900_308" result="shape"/>
</filter>
</defs>
</svg>
