<svg width="31" height="27" viewBox="0 0 31 27" fill="none" xmlns="http://www.w3.org/2000/svg">
<g filter="url(#filter0_d_485_940)">
<rect x="2" y="1" width="27" height="23" rx="3" fill="white"/>
</g>
<path d="M24.8426 6.95282V19.9412C24.8426 20.2774 24.535 20.55 24.1555 20.55H9.49717C9.11769 20.55 8.81006 20.2774 8.81006 19.9412V6.95282C8.81006 6.61658 9.11769 6.34399 9.49717 6.34399H24.1555C24.535 6.34399 24.8426 6.61658 24.8426 6.95282Z" stroke="#CFD7D1" stroke-linecap="round" stroke-linejoin="round"/>
<path d="M21.4075 3.30005H6.06211C5.68263 3.30005 5.375 3.57263 5.375 3.90888V17.5061" stroke="#CFD7D1" stroke-linecap="round" stroke-linejoin="round"/>
<path d="M8.81006 16.2884L15.0449 14.4619L24.8426 17.5061" stroke="#CFD7D1" stroke-linecap="round" stroke-linejoin="round"/>
<path d="M19.689 12.4324C18.7403 12.4324 17.9712 11.751 17.9712 10.9104C17.9712 10.0698 18.7403 9.38831 19.689 9.38831C20.6376 9.38831 21.4067 10.0698 21.4067 10.9104C21.4067 11.751 20.6376 12.4324 19.689 12.4324Z" stroke="#CFD7D1" stroke-linecap="round" stroke-linejoin="round"/>
<defs>
<filter id="filter0_d_485_940" x="0" y="0" width="31" height="27" filterUnits="userSpaceOnUse" color-interpolation-filters="sRGB">
<feFlood flood-opacity="0" result="BackgroundImageFix"/>
<feColorMatrix in="SourceAlpha" type="matrix" values="0 0 0 0 0 0 0 0 0 0 0 0 0 0 0 0 0 0 127 0" result="hardAlpha"/>
<feOffset dy="1"/>
<feGaussianBlur stdDeviation="1"/>
<feComposite in2="hardAlpha" operator="out"/>
<feColorMatrix type="matrix" values="0 0 0 0 0 0 0 0 0 0 0 0 0 0 0 0 0 0 0.25 0"/>
<feBlend mode="normal" in2="BackgroundImageFix" result="effect1_dropShadow_485_940"/>
<feBlend mode="normal" in="SourceGraphic" in2="effect1_dropShadow_485_940" result="shape"/>
</filter>
</defs>
</svg>
