<svg width="30" height="30" viewBox="0 0 30 30" fill="none" xmlns="http://www.w3.org/2000/svg">
<g clip-path="url(#clip0_2450_850)">
<path fill-rule="evenodd" clip-rule="evenodd" d="M6.36451 20.7974L8.4855 22.8477L2.1225 29L0 26.9497L6.36451 20.7974ZM18 20.3C13.038 20.3 9 16.3966 9 11.6C9 6.80195 13.038 2.9 18 2.9C22.9635 2.9 27 6.80195 27 11.6C27 16.3966 22.9635 20.3 18 20.3ZM18 0C11.373 0 6 5.1939 6 11.6C6 18.0061 11.373 23.2 18 23.2C24.6285 23.2 30 18.0061 30 11.6C30 5.1939 24.6285 0 18 0Z" fill="black"/>
</g>
<defs>
<clipPath id="clip0_2450_850">
<rect width="30" height="30" fill="white"/>
</clipPath>
</defs>
</svg>
